<?xml version="1.0" encoding="UTF-8"?>
<svg version="1.1" xmlns="http://www.w3.org/2000/svg" width="60" height="60">
<path d="M0 0 C0.80179688 0.00451172 1.60359375 0.00902344 2.4296875 0.01367188 C4.41149006 0.02546832 6.39325433 0.04340395 8.375 0.0625 C8.375 1.3825 8.375 2.7025 8.375 4.0625 C9.014375 4.371875 9.65375 4.68125 10.3125 5 C12.375 6.0625 12.375 6.0625 13.375 7.0625 C13.44813567 9.59299402 13.46747527 12.09554837 13.4375 14.625 C13.43298828 15.33591797 13.42847656 16.04683594 13.42382812 16.77929688 C13.41200864 18.54040013 13.39407263 20.30146036 13.375 22.0625 C12.385 22.3925 11.395 22.7225 10.375 23.0625 C10.2821875 24.42375 10.2821875 24.42375 10.1875 25.8125 C9.19053956 29.80034176 7.72611834 30.82842111 4.375 33.0625 C6.32103274 33.65320014 6.32103274 33.65320014 8.375 34.0625 C8.705 33.7325 9.035 33.4025 9.375 33.0625 C11.89594076 32.97402257 14.38930893 32.94722699 16.91015625 32.96484375 C18.04003212 32.96696617 18.04003212 32.96696617 19.19273376 32.96913147 C21.6076956 32.97474624 24.02256601 32.98730117 26.4375 33 C28.07096221 33.0050131 29.70442586 33.00957634 31.33789062 33.01367188 C35.35029585 33.02472046 39.36263241 33.04199494 43.375 33.0625 C43.47376923 38.04417305 43.47667797 42.73630402 42.375 47.625 C42.189375 48.47191406 42.00375 49.31882813 41.8125 50.19140625 C41.668125 50.80886719 41.52375 51.42632812 41.375 52.0625 C42.365 52.5575 42.365 52.5575 43.375 53.0625 C43.5 55.4375 43.5 55.4375 43.375 58.0625 C41.375 60.0625 41.375 60.0625 38.97727966 60.30973816 C37.97213821 60.30831314 36.96699677 60.30688812 35.93139648 60.30541992 C34.79359238 60.30849655 33.65578827 60.31157318 32.48350525 60.31474304 C31.25015945 60.30755753 30.01681366 60.30037201 28.74609375 60.29296875 C27.48612076 60.29251053 26.22614777 60.29205231 24.92799377 60.2915802 C22.26053475 60.28855464 19.5934193 60.28172585 16.92602539 60.26831055 C13.50035972 60.25130341 10.0748414 60.24749669 6.64913845 60.24825573 C3.38977555 60.2479191 0.13044377 60.23908533 -3.12890625 60.23046875 C-4.98196129 60.22879951 -4.98196129 60.22879951 -6.87245178 60.22709656 C-8.5744297 60.21752678 -8.5744297 60.21752678 -10.31079102 60.20776367 C-11.8173098 60.20204597 -11.8173098 60.20204597 -13.35426331 60.19621277 C-15.625 60.0625 -15.625 60.0625 -16.625 59.0625 C-16.83324525 56.15004147 -16.94976741 53.29077331 -17 50.375 C-17.03738281 49.57126953 -17.07476563 48.76753906 -17.11328125 47.93945312 C-17.1751415 43.73639255 -16.9822069 40.92394347 -14.30859375 37.56640625 C-11.45563884 34.90447889 -9.39360295 33.93891929 -5.625 33.0625 C-6.429375 32.52625 -7.23375 31.99 -8.0625 31.4375 C-11.09008424 28.63144631 -11.35010809 27.09424806 -11.625 23.0625 C-12.615 22.7325 -13.605 22.4025 -14.625 22.0625 C-14.73345031 19.49885517 -14.81249744 16.93983721 -14.875 14.375 C-14.90851562 13.65376953 -14.94203125 12.93253906 -14.9765625 12.18945312 C-15.04791404 8.28295657 -14.90034719 6.49315666 -12.734375 3.10546875 C-8.83041324 -0.67559051 -5.15734368 -0.05442002 0 0 Z M-10.375 5.3125 C-12.12791148 7.76657608 -12.29663788 10.10724096 -12.625 13.0625 C-10.22449123 12.50853644 -8.05357502 11.83889892 -5.75 10.9375 C-0.43435771 9.44912016 3.43074167 11.05807095 8.375 13.0625 C9.365 13.0625 10.355 13.0625 11.375 13.0625 C10.715 11.0825 10.055 9.1025 9.375 7.0625 C6.9 6.5675 6.9 6.5675 4.375 6.0625 C4.705 4.7425 5.035 3.4225 5.375 2.0625 C-0.60690096 1.82791565 -5.32452493 1.70501781 -10.375 5.3125 Z M-7.625 15.0625 C-9.28419896 15.43121088 -10.9497643 15.77531674 -12.625 16.0625 C-12.05155063 18.92974686 -11.7635485 19.9239515 -9.625 22.0625 C-9.315625 22.866875 -9.00625 23.67125 -8.6875 24.5 C-7.3323145 27.85347707 -7.3323145 27.85347707 -4.625 30.0625 C0.94833629 30.75003348 0.94833629 30.75003348 5.75 28.375 C7.41857489 26.00048958 8.37538787 23.77573292 9.375 21.0625 C10.035 20.4025 10.695 19.7425 11.375 19.0625 C11.375 18.0725 11.375 17.0825 11.375 16.0625 C10.653125 15.93875 9.93125 15.815 9.1875 15.6875 C6.375 15.0625 6.375 15.0625 3.8125 14 C-0.62103424 12.29479452 -3.47506472 13.34179513 -7.625 15.0625 Z M-2.625 33.0625 C-2.295 34.0525 -1.965 35.0425 -1.625 36.0625 C-0.635 35.7325 0.355 35.4025 1.375 35.0625 C1.375 34.4025 1.375 33.7425 1.375 33.0625 C0.055 33.0625 -1.265 33.0625 -2.625 33.0625 Z M12.375 35.0625 C12.97911936 45.50080548 12.97911936 45.50080548 15.375 53.0625 C22.635 53.0625 29.895 53.0625 37.375 53.0625 C37.87 51.20625 38.365 49.35 38.875 47.4375 C39.1534375 46.39335938 39.431875 45.34921875 39.71875 44.2734375 C40.57524023 40.62897208 40.57524023 40.62897208 40.375 35.0625 C31.135 35.0625 21.895 35.0625 12.375 35.0625 Z M-11.375 39.25 C-14.53316401 43.19770501 -14.77538748 46.21442224 -14.8125 51.1875 C-14.82667969 52.05632813 -14.84085938 52.92515625 -14.85546875 53.8203125 C-14.84243605 56.26579726 -14.84243605 56.26579726 -12.625 58.0625 C-10.29682795 58.34015416 -10.29682795 58.34015416 -7.6171875 58.2578125 C-6.63105469 58.25136719 -5.64492187 58.24492188 -4.62890625 58.23828125 C-3.59636719 58.22152344 -2.56382813 58.20476563 -1.5 58.1875 C-0.45972656 58.17847656 0.58054687 58.16945313 1.65234375 58.16015625 C4.22679092 58.13653747 6.80078212 58.10360149 9.375 58.0625 C9.375 56.4125 9.375 54.7625 9.375 53.0625 C10.365 52.7325 11.355 52.4025 12.375 52.0625 C10.89 45.1325 10.89 45.1325 9.375 38.0625 C6.405 37.5675 6.405 37.5675 3.375 37.0625 C3.045 37.3925 2.715 37.7225 2.375 38.0625 C-0.72390577 38.20335935 -3.21676344 38.19194086 -6.1875 37.25 C-8.8900579 36.76393508 -8.8900579 36.76393508 -11.375 39.25 Z M12.375 55.0625 C12.375 55.7225 12.375 56.3825 12.375 57.0625 C14.96223989 58.35611994 16.85613003 58.19198949 19.75 58.1953125 C21.35101563 58.19724609 21.35101563 58.19724609 22.984375 58.19921875 C24.10328125 58.19535156 25.2221875 58.19148438 26.375 58.1875 C27.49390625 58.19136719 28.6128125 58.19523437 29.765625 58.19921875 C30.83296875 58.19792969 31.9003125 58.19664063 33 58.1953125 C33.98226562 58.19418457 34.96453125 58.19305664 35.9765625 58.19189453 C38.38907894 58.22145235 38.38907894 58.22145235 40.375 57.0625 C40.375 56.4025 40.375 55.7425 40.375 55.0625 C31.135 55.0625 21.895 55.0625 12.375 55.0625 Z " fill="#000000" transform="translate(16.625,-0.0625)"/>
<path d="M0 0 C3.3 0 6.6 0 10 0 C9.67 1.32 9.34 2.64 9 4 C6.36 4 3.72 4 1 4 C0.67 2.68 0.34 1.36 0 0 Z " fill="#000000" transform="translate(11,24)"/>
<path d="M0 0 C1.32 0.33 2.64 0.66 4 1 C4.625 3.375 4.625 3.375 5 6 C4.34 6.66 3.68 7.32 3 8 C2.01 8 1.02 8 0 8 C0 5.36 0 2.72 0 0 Z " fill="#000000" transform="translate(47,40)"/>
<path d="M0 0 C0.99 0 1.98 0 3 0 C3 2.64 3 5.28 3 8 C1.68 7.67 0.36 7.34 -1 7 C-1.625 4.625 -1.625 4.625 -2 2 C-1.34 1.34 -0.68 0.68 0 0 Z " fill="#000000" transform="translate(36,40)"/>
<path d="M0 0 C0.66 0 1.32 0 2 0 C1.67 2.97 1.34 5.94 1 9 C0.01 9.33 -0.98 9.66 -2 10 C-1.85950482 8.52031676 -1.71245174 7.04125484 -1.5625 5.5625 C-1.48128906 4.73878906 -1.40007813 3.91507813 -1.31640625 3.06640625 C-1 1 -1 1 0 0 Z " fill="#000000" transform="translate(43,39)"/>
</svg>
